<svg id="Layer_1" data-name="Layer 1" xmlns="http://www.w3.org/2000/svg" width="75" height="225" viewBox="0 0 75 225">
  <title>icon__social</title>
  <rect x="-0.01" width="75" height="75" fill="#968650"/>
  <path d="M65.4,44.9l1.48-11.48H55.51V26.09c0-3.32.93-5.59,5.69-5.59h6.07V10.23a81,81,0,0,0-8.86-.45c-8.77,0-14.76,5.35-14.76,15.18v8.47H33.75V44.9h9.91V74.35H55.51V44.9Z" fill="#fff"/>
  <g>
    <rect x="-0.18" y="74.82" width="75.36" height="75.36" fill="#968650"/>
    <path d="M62.62,96.92a20.58,20.58,0,0,1-5.92,1.62,10.33,10.33,0,0,0,4.53-5.7,20.6,20.6,0,0,1-6.54,2.5,10.32,10.32,0,0,0-17.57,9.4A29.25,29.25,0,0,1,15.88,94a10.32,10.32,0,0,0,3.19,13.76,10.26,10.26,0,0,1-4.67-1.29v.13a10.32,10.32,0,0,0,8.27,10.11,10.38,10.38,0,0,1-2.72.36,10.24,10.24,0,0,1-1.94-.19A10.32,10.32,0,0,0,27.64,124a20.68,20.68,0,0,1-12.8,4.41,21.27,21.27,0,0,1-2.46-.14,29.19,29.19,0,0,0,15.8,4.63c19,0,29.32-15.7,29.32-29.33,0-.45,0-.89,0-1.34A21,21,0,0,0,62.62,96.92Z" fill="#fff"/>
  </g>
  <g>
    <rect y="150" width="75" height="75" fill="#968650"/>
    <path d="M19.06,162.68H55.95a6.39,6.39,0,0,1,6.37,6.37v36.89a6.39,6.39,0,0,1-6.37,6.37H19.06a6.39,6.39,0,0,1-6.37-6.37V169.06A6.39,6.39,0,0,1,19.06,162.68Zm29.79,5.51a2.24,2.24,0,0,0-2.24,2.24v5.35A2.24,2.24,0,0,0,48.84,178h5.61a2.24,2.24,0,0,0,2.23-2.24v-5.35a2.24,2.24,0,0,0-2.23-2.24Zm7.86,15.48H52.34a14.51,14.51,0,0,1,.64,4.26,15.2,15.2,0,0,1-15.43,14.95,15.2,15.2,0,0,1-15.43-14.95,14.58,14.58,0,0,1,.64-4.26H18.2v21a2,2,0,0,0,2,2H54.74a2,2,0,0,0,2-2Zm-19.16-5.94a9.66,9.66,0,1,0,10,9.66A9.82,9.82,0,0,0,37.55,177.73Z" fill="#fff"/>
  </g>
</svg>
