<svg id="logo" xmlns="http://www.w3.org/2000/svg" width="200" height="170" viewBox="0 0 200 170">
  <title>ardor_care_logo</title>
  <path id="fill" d="M180,21.26A53.28,53.28,0,0,0,142,5.59a52.34,52.34,0,0,0-23.87,5.78L114.85,13a0.75,0.75,0,0,1-.67,0l-3.39-1.66A43.57,43.57,0,0,0,91,6.77,44.83,44.83,0,0,0,46.47,51.62a44.51,44.51,0,0,0,5.47,21.43c0.11,0.2.26,0.45,0.43,0.72l-45,26.49C5.61,101.32,4,103.12,4,105.06L4.2,159c0,3.14,3.84,7.21,7.26,7.2L48.64,166h3.72c3.42,0,5.38-4.09,5.37-7.23l0-11.37c0-3.14,3.57-4.75,7-4.76l8.68,0c3.42,0,4.91,1.59,4.92,4.73l0,11.37c0,3.14,4.09,7.21,7.51,7.19l5,0L128,165.8c3.42,0,5.26-4.09,5.25-7.23l-0.09-30.62c1.37-.49,3.6-1.22,4-1.49,0,0,.28,0,0.32,0a129.9,129.9,0,0,0,31.2-17.56s12-9.65,17.54-18.92c5.67-9.57,9.61-19.76,9.58-30.67A53.51,53.51,0,0,0,180,21.26Z" fill="#928354"/>
  <g id="outline">
    <path d="M11,167.53a8.71,8.71,0,0,1-8.94-8.41L1.93,105.22a8.28,8.28,0,0,1,4.17-7.16L50.93,71.36l2.81,4.72L8.9,102.78a2.85,2.85,0,0,0-1.49,2.42l0.16,53.91A3.23,3.23,0,0,0,11,162h0l40.9-.13a3.71,3.71,0,0,0,2.52-1,2.71,2.71,0,0,0,.92-2l0-11.37a8.71,8.71,0,0,1,8.92-8.46l8.68,0h0a8.71,8.71,0,0,1,8.94,8.41l0,11.37a3.23,3.23,0,0,0,3.45,2.93h0l42.14-.13a3.23,3.23,0,0,0,3.44-3l-0.09-30.78,5.49,0,0.09,30.78a8.71,8.71,0,0,1-8.92,8.46l-42.14.13h0a8.71,8.71,0,0,1-8.94-8.41l0-11.37A3.23,3.23,0,0,0,73,144.59h0l-8.68,0a3.23,3.23,0,0,0-3.44,3l0,11.37A8.14,8.14,0,0,1,58.19,165,9.18,9.18,0,0,1,52,167.41l-40.9.13h0Z"/>
    <g>
      <path d="M135.26,62.52a5.67,5.67,0,0,1-5.69-4.8,5.57,5.57,0,0,1-.07-0.86,5.74,5.74,0,0,1,4.86-5.66,5.81,5.81,0,0,1,.88-0.07A5.71,5.71,0,0,1,140.92,56a5.91,5.91,0,0,1,.07.89,5.67,5.67,0,0,1-1.1,3.39,5.58,5.58,0,0,1-3.75,2.24,2.17,2.17,0,0,1-.34,0h-0.55Z"/>
      <path d="M123.25,134a4.39,4.39,0,0,1-2-.45,6.43,6.43,0,0,1-3.26-3.73l-5.94-18.75a9.79,9.79,0,0,1-.22-5.12,6,6,0,0,1,3.53-4.23l0.58-.22c2-.7,4-1.43,5.92-2.16s3.85-1.55,5.69-2.35,3.87-1.76,5.7-2.67c1.36-.68,2.68-1.37,4-2.08a2.75,2.75,0,0,1,2.63,4.82c-1.36.74-2.74,1.47-4.16,2.18-1.9,1-3.9,1.89-5.94,2.79s-3.9,1.66-5.91,2.45-4,1.52-6.13,2.24l-0.28.1a0.5,0.5,0,0,0-.26.35,4.32,4.32,0,0,0,.1,2.25l6,18.77a0.84,0.84,0,0,0,.26.3h0a5.33,5.33,0,0,0,.71-0.05l0.86-.29c1.56-.52,3-1,4.46-1.57l2-.67c0.73-.23,3.71-1.38,4.25-1.67a2.67,2.67,0,0,1,.48-0.24,126.34,126.34,0,0,0,30.41-17.18c0.07-.06,11.63-9.42,16.8-18.15,6.2-10.45,9.19-20,9.17-29.26a51.09,51.09,0,0,0-51-50.93h-0.16A49.61,49.61,0,0,0,118.94,14l-3.24,1.67a3.51,3.51,0,0,1-3.14,0L109.17,14a40.85,40.85,0,0,0-18.4-4.33H90.65a42.08,42.08,0,0,0-41.84,42.1,41.75,41.75,0,0,0,5.12,20.11c0.61,1.11,2.64,3.88,3.11,4.5l0.1,0.14c7.61,11.61,20.1,20.9,37.12,27.62a2.75,2.75,0,0,1-2,5.11c-18.06-7.13-31.4-17.1-39.65-29.65-0.41-.55-2.62-3.55-3.46-5.06a47.58,47.58,0,0,1,8-56.34,47,47,0,0,1,33.47-14h0.14a46.27,46.27,0,0,1,20.84,4.91l2.47,1.21,2.36-1.22A55.06,55.06,0,0,1,141.55,3h0.18a56.58,56.58,0,0,1,56.45,56.4c0,10.26-3.22,20.75-9.93,32.08-5.68,9.59-17.62,19.26-18.12,19.66a131.76,131.76,0,0,1-31.65,17.91,52.24,52.24,0,0,1-5.24,2.1l-1.79.59c-1.47.58-3,1.08-4.55,1.61l-1,.34a7.78,7.78,0,0,1-2.13.3Z"/>
    </g>
  </g>
</svg>
